<?xml version="1.0" encoding="UTF-8" standalone="no"?>
<!DOCTYPE svg PUBLIC "-//W3C//DTD SVG 1.1//EN"
 "http://www.w3.org/Graphics/SVG/1.1/DTD/svg11.dtd">
<!-- Generated by graphviz version 15.0.0 (20260523.1842)
 -->
<!-- Pages: 1 -->
<svg width="998pt" height="818pt"
 viewBox="0.00 0.00 998.00 818.00" xmlns="http://www.w3.org/2000/svg" xmlns:xlink="http://www.w3.org/1999/xlink">
<g id="graph0" class="graph" transform="scale(1 1) rotate(0) translate(4 814)">
<polygon fill="white" stroke="none" points="-4,4 -4,-814 994,-814 994,4 -4,4"/>
<g id="clust1" class="cluster">
<title>cluster_0</title>
<path fill="none" stroke="#34495e" stroke-dasharray="5,2" d="M829.62,-729C829.62,-729 957.62,-729 957.62,-729 963.62,-729 969.62,-735 969.62,-741 969.62,-741 969.62,-790 969.62,-790 969.62,-796 963.62,-802 957.62,-802 957.62,-802 829.62,-802 829.62,-802 823.62,-802 817.62,-796 817.62,-790 817.62,-790 817.62,-741 817.62,-741 817.62,-735 823.62,-729 829.62,-729"/>
<text xml:space="preserve" text-anchor="middle" x="893.62" y="-786.6" font-family="Helvetica,sans-Serif" font-weight="bold" font-size="12.00">bgp_label.c</text>
</g>
<g id="clust2" class="cluster">
<title>cluster_1</title>
<path fill="none" stroke="#34495e" stroke-dasharray="5,2" d="M20,-409C20,-409 701.25,-409 701.25,-409 707.25,-409 713.25,-415 713.25,-421 713.25,-421 713.25,-628 713.25,-628 713.25,-634 707.25,-640 701.25,-640 701.25,-640 20,-640 20,-640 14,-640 8,-634 8,-628 8,-628 8,-421 8,-421 8,-415 14,-409 20,-409"/>
<text xml:space="preserve" text-anchor="middle" x="360.62" y="-624.6" font-family="Helvetica,sans-Serif" font-weight="bold" font-size="12.00">bgp_packet.c</text>
</g>
<g id="clust3" class="cluster">
<title>cluster_2</title>
<path fill="none" stroke="#34495e" stroke-dasharray="5,2" d="M578.5,-328C578.5,-328 673.5,-328 673.5,-328 679.5,-328 685.5,-334 685.5,-340 685.5,-340 685.5,-389 685.5,-389 685.5,-395 679.5,-401 673.5,-401 673.5,-401 578.5,-401 578.5,-401 572.5,-401 566.5,-395 566.5,-389 566.5,-389 566.5,-340 566.5,-340 566.5,-334 572.5,-328 578.5,-328"/>
<text xml:space="preserve" text-anchor="middle" x="626" y="-385.6" font-family="Helvetica,sans-Serif" font-weight="bold" font-size="12.00">bgp_attr.c</text>
</g>
<g id="clust4" class="cluster">
<title>cluster_3</title>
<path fill="none" stroke="#34495e" stroke-dasharray="5,2" d="M580.38,-168C580.38,-168 671.62,-168 671.62,-168 677.62,-168 683.62,-174 683.62,-180 683.62,-180 683.62,-308 683.62,-308 683.62,-314 677.62,-320 671.62,-320 671.62,-320 580.38,-320 580.38,-320 574.38,-320 568.38,-314 568.38,-308 568.38,-308 568.38,-180 568.38,-180 568.38,-174 574.38,-168 580.38,-168"/>
<text xml:space="preserve" text-anchor="middle" x="626" y="-304.6" font-family="Helvetica,sans-Serif" font-weight="bold" font-size="12.00">bgp_io.c</text>
</g>
<g id="clust5" class="cluster">
<title>cluster_4</title>
<path fill="none" stroke="#34495e" stroke-dasharray="5,2" d="M50,-8C50,-8 700.88,-8 700.88,-8 706.88,-8 712.88,-14 712.88,-20 712.88,-20 712.88,-148 712.88,-148 712.88,-154 706.88,-160 700.88,-160 700.88,-160 50,-160 50,-160 44,-160 38,-154 38,-148 38,-148 38,-20 38,-20 38,-14 44,-8 50,-8"/>
<text xml:space="preserve" text-anchor="middle" x="375.44" y="-144.6" font-family="Helvetica,sans-Serif" font-weight="bold" font-size="12.00">bgp_fsm.c</text>
</g>
<g id="clust6" class="cluster">
<title>cluster_5</title>
<path fill="none" stroke="#34495e" stroke-dasharray="5,2" d="M838.25,-648C838.25,-648 949,-648 949,-648 955,-648 961,-654 961,-660 961,-660 961,-709 961,-709 961,-715 955,-721 949,-721 949,-721 838.25,-721 838.25,-721 832.25,-721 826.25,-715 826.25,-709 826.25,-709 826.25,-660 826.25,-660 826.25,-654 832.25,-648 838.25,-648"/>
<text xml:space="preserve" text-anchor="middle" x="893.62" y="-705.6" font-family="Helvetica,sans-Serif" font-weight="bold" font-size="12.00">bgp_ls.c</text>
</g>
<g id="clust7" class="cluster">
<title>cluster_6</title>
<path fill="none" stroke="#34495e" stroke-dasharray="5,2" d="M832.25,-567C832.25,-567 955,-567 955,-567 961,-567 967,-573 967,-579 967,-579 967,-628 967,-628 967,-634 961,-640 955,-640 955,-640 832.25,-640 832.25,-640 826.25,-640 820.25,-634 820.25,-628 820.25,-628 820.25,-579 820.25,-579 820.25,-573 826.25,-567 832.25,-567"/>
<text xml:space="preserve" text-anchor="middle" x="893.62" y="-624.6" font-family="Helvetica,sans-Serif" font-weight="bold" font-size="12.00">bgp_mplsvpn.c</text>
</g>
<g id="clust8" class="cluster">
<title>cluster_7</title>
<path fill="none" stroke="#34495e" stroke-dasharray="5,2" d="M828.88,-486C828.88,-486 958.38,-486 958.38,-486 964.38,-486 970.38,-492 970.38,-498 970.38,-498 970.38,-547 970.38,-547 970.38,-553 964.38,-559 958.38,-559 958.38,-559 828.88,-559 828.88,-559 822.88,-559 816.88,-553 816.88,-547 816.88,-547 816.88,-498 816.88,-498 816.88,-492 822.88,-486 828.88,-486"/>
<text xml:space="preserve" text-anchor="middle" x="893.62" y="-543.6" font-family="Helvetica,sans-Serif" font-weight="bold" font-size="12.00">bgp_evpn.c</text>
</g>
<g id="clust9" class="cluster">
<title>cluster_8</title>
<path fill="none" stroke="#34495e" stroke-dasharray="5,2" d="M817.25,-405C817.25,-405 970,-405 970,-405 976,-405 982,-411 982,-417 982,-417 982,-466 982,-466 982,-472 976,-478 970,-478 970,-478 817.25,-478 817.25,-478 811.25,-478 805.25,-472 805.25,-466 805.25,-466 805.25,-417 805.25,-417 805.25,-411 811.25,-405 817.25,-405"/>
<text xml:space="preserve" text-anchor="middle" x="893.62" y="-462.6" font-family="Helvetica,sans-Serif" font-weight="bold" font-size="12.00">bgp_flowspec.c</text>
</g>
<g id="clust10" class="cluster">
<title>cluster_9</title>
<path fill="none" stroke="#34495e" stroke-dasharray="5,2" d="M837.88,-324C837.88,-324 949.38,-324 949.38,-324 955.38,-324 961.38,-330 961.38,-336 961.38,-336 961.38,-385 961.38,-385 961.38,-391 955.38,-397 949.38,-397 949.38,-397 837.88,-397 837.88,-397 831.88,-397 825.88,-391 825.88,-385 825.88,-385 825.88,-336 825.88,-336 825.88,-330 831.88,-324 837.88,-324"/>
<text xml:space="preserve" text-anchor="middle" x="893.62" y="-381.6" font-family="Helvetica,sans-Serif" font-weight="bold" font-size="12.00">bgp_route.c</text>
</g>
<!-- bgp_nlri_parse_label -->
<g id="node1" class="node">
<title>bgp_nlri_parse_label</title>
<path fill="#f39c12" stroke="#d35400" d="M949.62,-773C949.62,-773 837.62,-773 837.62,-773 831.62,-773 825.62,-767 825.62,-761 825.62,-761 825.62,-749 825.62,-749 825.62,-743 831.62,-737 837.62,-737 837.62,-737 949.62,-737 949.62,-737 955.62,-737 961.62,-743 961.62,-749 961.62,-749 961.62,-761 961.62,-761 961.62,-767 955.62,-773 949.62,-773"/>
<text xml:space="preserve" text-anchor="middle" x="893.62" y="-749.98" font-family="Helvetica,sans-Serif" font-weight="bold" font-size="12.00" fill="white">bgp_nlri_parse_label</text>
</g>
<!-- bgp_keepalive_receive -->
<g id="node2" class="node">
<title>bgp_keepalive_receive</title>
<path fill="#e74c3c" stroke="#c0392b" d="M411.38,-453C411.38,-453 288.12,-453 288.12,-453 282.12,-453 276.12,-447 276.12,-441 276.12,-441 276.12,-429 276.12,-429 276.12,-423 282.12,-417 288.12,-417 288.12,-417 411.38,-417 411.38,-417 417.38,-417 423.38,-423 423.38,-429 423.38,-429 423.38,-441 423.38,-441 423.38,-447 417.38,-453 411.38,-453"/>
<text xml:space="preserve" text-anchor="middle" x="349.75" y="-429.98" font-family="Helvetica,sans-Serif" font-weight="bold" font-size="12.00" fill="white">bgp_keepalive_receive</text>
</g>
<!-- bgp_reads_off -->
<g id="node9" class="node">
<title>bgp_reads_off</title>
<path fill="#e74c3c" stroke="#c0392b" d="M663.62,-212C663.62,-212 588.38,-212 588.38,-212 582.38,-212 576.38,-206 576.38,-200 576.38,-200 576.38,-188 576.38,-188 576.38,-182 582.38,-176 588.38,-176 588.38,-176 663.62,-176 663.62,-176 669.62,-176 675.62,-182 675.62,-188 675.62,-188 675.62,-200 675.62,-200 675.62,-206 669.62,-212 663.62,-212"/>
<text xml:space="preserve" text-anchor="middle" x="626" y="-188.97" font-family="Helvetica,sans-Serif" font-weight="bold" font-size="12.00" fill="white">bgp_reads_off</text>
</g>
<!-- bgp_keepalive_receive&#45;&gt;bgp_reads_off -->
<g id="edge3" class="edge">
<title>bgp_keepalive_receive&#45;&gt;bgp_reads_off</title>
<path fill="none" stroke="#2c3e50" stroke-width="1.5" d="M365.1,-416.68C395.44,-378.84 469.66,-290.83 546.75,-234 554.61,-228.21 563.43,-222.81 572.23,-217.98"/>
<polygon fill="#2c3e50" stroke="#2c3e50" stroke-width="1.5" points="573.67,-221.17 580.9,-213.42 570.42,-214.98 573.67,-221.17"/>
</g>
<!-- bgp_fsm_change_status -->
<g id="node11" class="node">
<title>bgp_fsm_change_status</title>
<path fill="#9b59b6" stroke="#8e44ad" d="M692.88,-131C692.88,-131 559.12,-131 559.12,-131 553.12,-131 547.12,-125 547.12,-119 547.12,-119 547.12,-107 547.12,-107 547.12,-101 553.12,-95 559.12,-95 559.12,-95 692.88,-95 692.88,-95 698.88,-95 704.88,-101 704.88,-107 704.88,-107 704.88,-119 704.88,-119 704.88,-125 698.88,-131 692.88,-131"/>
<text xml:space="preserve" text-anchor="middle" x="626" y="-107.97" font-family="Helvetica,sans-Serif" font-weight="bold" font-size="12.00" fill="white">bgp_fsm_change_status</text>
</g>
<!-- bgp_keepalive_receive&#45;&gt;bgp_fsm_change_status -->
<g id="edge18" class="edge">
<title>bgp_keepalive_receive&#45;&gt;bgp_fsm_change_status</title>
<path fill="none" stroke="#2c3e50" stroke-width="1.5" d="M359.99,-416.78C384.78,-369.27 457,-239.69 546.75,-158 555.09,-150.41 564.93,-143.53 574.76,-137.56"/>
<polygon fill="#2c3e50" stroke="#2c3e50" stroke-width="1.5" points="576.47,-140.61 583.38,-132.59 572.97,-134.55 576.47,-140.61"/>
</g>
<!-- bgp_update_receive_eor -->
<g id="node3" class="node">
<title>bgp_update_receive_eor</title>
<path fill="#e74c3c" stroke="#c0392b" d="M693.25,-492C693.25,-492 558.75,-492 558.75,-492 552.75,-492 546.75,-486 546.75,-480 546.75,-480 546.75,-468 546.75,-468 546.75,-462 552.75,-456 558.75,-456 558.75,-456 693.25,-456 693.25,-456 699.25,-456 705.25,-462 705.25,-468 705.25,-468 705.25,-480 705.25,-480 705.25,-486 699.25,-492 693.25,-492"/>
<text xml:space="preserve" text-anchor="middle" x="626" y="-468.98" font-family="Helvetica,sans-Serif" font-weight="bold" font-size="12.00" fill="white">bgp_update_receive_eor</text>
</g>
<!-- bgp_nlri_parse -->
<g id="node4" class="node">
<title>bgp_nlri_parse</title>
<path fill="#f39c12" stroke="#d35400" d="M665.12,-571C665.12,-571 586.88,-571 586.88,-571 580.88,-571 574.88,-565 574.88,-559 574.88,-559 574.88,-547 574.88,-547 574.88,-541 580.88,-535 586.88,-535 586.88,-535 665.12,-535 665.12,-535 671.12,-535 677.12,-541 677.12,-547 677.12,-547 677.12,-559 677.12,-559 677.12,-565 671.12,-571 665.12,-571"/>
<text xml:space="preserve" text-anchor="middle" x="626" y="-547.98" font-family="Helvetica,sans-Serif" font-weight="bold" font-size="12.00" fill="white">bgp_nlri_parse</text>
</g>
<!-- bgp_nlri_parse&#45;&gt;bgp_nlri_parse_label -->
<g id="edge13" class="edge">
<title>bgp_nlri_parse&#45;&gt;bgp_nlri_parse_label</title>
<path fill="none" stroke="#2c3e50" stroke-width="1.5" d="M640.19,-571.48C667.02,-607.72 731.7,-688.26 805.25,-731 808.09,-732.65 811.04,-734.19 814.07,-735.62"/>
<polygon fill="#2c3e50" stroke="#2c3e50" stroke-width="1.5" points="812.67,-738.83 823.24,-739.5 815.39,-732.38 812.67,-738.83"/>
</g>
<!-- bgp_nlri_parse_ls -->
<g id="node15" class="node">
<title>bgp_nlri_parse_ls</title>
<path fill="#f39c12" stroke="#d35400" d="M941,-692C941,-692 846.25,-692 846.25,-692 840.25,-692 834.25,-686 834.25,-680 834.25,-680 834.25,-668 834.25,-668 834.25,-662 840.25,-656 846.25,-656 846.25,-656 941,-656 941,-656 947,-656 953,-662 953,-668 953,-668 953,-680 953,-680 953,-686 947,-692 941,-692"/>
<text xml:space="preserve" text-anchor="middle" x="893.62" y="-668.98" font-family="Helvetica,sans-Serif" font-weight="bold" font-size="12.00" fill="white">bgp_nlri_parse_ls</text>
</g>
<!-- bgp_nlri_parse&#45;&gt;bgp_nlri_parse_ls -->
<g id="edge16" class="edge">
<title>bgp_nlri_parse&#45;&gt;bgp_nlri_parse_ls</title>
<path fill="none" stroke="#2c3e50" stroke-width="1.5" d="M655.94,-571.47C690.39,-592.8 750.19,-627.8 805.25,-650 810.85,-652.26 816.74,-654.38 822.7,-656.35"/>
<polygon fill="#2c3e50" stroke="#2c3e50" stroke-width="1.5" points="821.44,-659.63 832.03,-659.28 823.54,-652.95 821.44,-659.63"/>
</g>
<!-- bgp_nlri_parse_vpn -->
<g id="node16" class="node">
<title>bgp_nlri_parse_vpn</title>
<path fill="#f39c12" stroke="#d35400" d="M947,-611C947,-611 840.25,-611 840.25,-611 834.25,-611 828.25,-605 828.25,-599 828.25,-599 828.25,-587 828.25,-587 828.25,-581 834.25,-575 840.25,-575 840.25,-575 947,-575 947,-575 953,-575 959,-581 959,-587 959,-587 959,-599 959,-599 959,-605 953,-611 947,-611"/>
<text xml:space="preserve" text-anchor="middle" x="893.62" y="-587.98" font-family="Helvetica,sans-Serif" font-weight="bold" font-size="12.00" fill="white">bgp_nlri_parse_vpn</text>
</g>
<!-- bgp_nlri_parse&#45;&gt;bgp_nlri_parse_vpn -->
<g id="edge14" class="edge">
<title>bgp_nlri_parse&#45;&gt;bgp_nlri_parse_vpn</title>
<path fill="none" stroke="#2c3e50" stroke-width="1.5" d="M677.59,-560.62C716.75,-566.51 771.63,-574.78 816.14,-581.48"/>
<polygon fill="#2c3e50" stroke="#2c3e50" stroke-width="1.5" points="815.45,-584.92 825.86,-582.95 816.5,-578 815.45,-584.92"/>
</g>
<!-- bgp_nlri_parse_evpn -->
<g id="node17" class="node">
<title>bgp_nlri_parse_evpn</title>
<path fill="#f39c12" stroke="#d35400" d="M950.38,-530C950.38,-530 836.88,-530 836.88,-530 830.88,-530 824.88,-524 824.88,-518 824.88,-518 824.88,-506 824.88,-506 824.88,-500 830.88,-494 836.88,-494 836.88,-494 950.38,-494 950.38,-494 956.38,-494 962.38,-500 962.38,-506 962.38,-506 962.38,-518 962.38,-518 962.38,-524 956.38,-530 950.38,-530"/>
<text xml:space="preserve" text-anchor="middle" x="893.62" y="-506.98" font-family="Helvetica,sans-Serif" font-weight="bold" font-size="12.00" fill="white">bgp_nlri_parse_evpn</text>
</g>
<!-- bgp_nlri_parse&#45;&gt;bgp_nlri_parse_evpn -->
<g id="edge17" class="edge">
<title>bgp_nlri_parse&#45;&gt;bgp_nlri_parse_evpn</title>
<path fill="none" stroke="#2c3e50" stroke-width="1.5" d="M677.59,-545.19C715.7,-539.31 768.7,-531.13 812.55,-524.36"/>
<polygon fill="#2c3e50" stroke="#2c3e50" stroke-width="1.5" points="813.07,-527.82 822.41,-522.84 812,-520.9 813.07,-527.82"/>
</g>
<!-- bgp_nlri_parse_flowspec -->
<g id="node18" class="node">
<title>bgp_nlri_parse_flowspec</title>
<path fill="#f39c12" stroke="#d35400" d="M962,-449C962,-449 825.25,-449 825.25,-449 819.25,-449 813.25,-443 813.25,-437 813.25,-437 813.25,-425 813.25,-425 813.25,-419 819.25,-413 825.25,-413 825.25,-413 962,-413 962,-413 968,-413 974,-419 974,-425 974,-425 974,-437 974,-437 974,-443 968,-449 962,-449"/>
<text xml:space="preserve" text-anchor="middle" x="893.62" y="-425.98" font-family="Helvetica,sans-Serif" font-weight="bold" font-size="12.00" fill="white">bgp_nlri_parse_flowspec</text>
</g>
<!-- bgp_nlri_parse&#45;&gt;bgp_nlri_parse_flowspec -->
<g id="edge5" class="edge">
<title>bgp_nlri_parse&#45;&gt;bgp_nlri_parse_flowspec</title>
<path fill="none" stroke="#2c3e50" stroke-width="1.5" d="M667.84,-534.62C682.2,-528.13 698.46,-520.77 713.25,-514 756.94,-494.01 806.5,-471.06 842.43,-454.37"/>
<polygon fill="#2c3e50" stroke="#2c3e50" stroke-width="1.5" points="843.48,-457.74 851.07,-450.35 840.53,-451.39 843.48,-457.74"/>
</g>
<!-- bgp_nlri_parse_ip -->
<g id="node19" class="node">
<title>bgp_nlri_parse_ip</title>
<path fill="#f39c12" stroke="#d35400" d="M941.38,-368C941.38,-368 845.88,-368 845.88,-368 839.88,-368 833.88,-362 833.88,-356 833.88,-356 833.88,-344 833.88,-344 833.88,-338 839.88,-332 845.88,-332 845.88,-332 941.38,-332 941.38,-332 947.38,-332 953.38,-338 953.38,-344 953.38,-344 953.38,-356 953.38,-356 953.38,-362 947.38,-368 941.38,-368"/>
<text xml:space="preserve" text-anchor="middle" x="893.62" y="-344.98" font-family="Helvetica,sans-Serif" font-weight="bold" font-size="12.00" fill="white">bgp_nlri_parse_ip</text>
</g>
<!-- bgp_nlri_parse&#45;&gt;bgp_nlri_parse_ip -->
<g id="edge21" class="edge">
<title>bgp_nlri_parse&#45;&gt;bgp_nlri_parse_ip</title>
<path fill="none" stroke="#2c3e50" stroke-width="1.5" d="M677.27,-535.23C689.72,-529.53 702.55,-522.46 713.25,-514 765.71,-472.56 753.87,-437.77 805.25,-395 814.79,-387.06 825.97,-380 837.07,-373.96"/>
<polygon fill="#2c3e50" stroke="#2c3e50" stroke-width="1.5" points="838.36,-377.23 845.63,-369.53 835.14,-371.01 838.36,-377.23"/>
</g>
<!-- bgp_update_receive -->
<g id="node5" class="node">
<title>bgp_update_receive</title>
<path fill="#e74c3c" stroke="#c0392b" d="M404.25,-532C404.25,-532 295.25,-532 295.25,-532 289.25,-532 283.25,-526 283.25,-520 283.25,-520 283.25,-508 283.25,-508 283.25,-502 289.25,-496 295.25,-496 295.25,-496 404.25,-496 404.25,-496 410.25,-496 416.25,-502 416.25,-508 416.25,-508 416.25,-520 416.25,-520 416.25,-526 410.25,-532 404.25,-532"/>
<text xml:space="preserve" text-anchor="middle" x="349.75" y="-508.98" font-family="Helvetica,sans-Serif" font-weight="bold" font-size="12.00" fill="white">bgp_update_receive</text>
</g>
<!-- bgp_update_receive&#45;&gt;bgp_update_receive_eor -->
<g id="edge1" class="edge">
<title>bgp_update_receive&#45;&gt;bgp_update_receive_eor</title>
<path fill="none" stroke="#2c3e50" stroke-width="1.5" d="M416.44,-504.42C451.76,-499.27 495.86,-492.84 534.4,-487.21"/>
<polygon fill="#2c3e50" stroke="#2c3e50" stroke-width="1.5" points="534.79,-490.69 544.18,-485.79 533.78,-483.77 534.79,-490.69"/>
</g>
<!-- bgp_update_receive&#45;&gt;bgp_nlri_parse -->
<g id="edge9" class="edge">
<title>bgp_update_receive&#45;&gt;bgp_nlri_parse</title>
<path fill="none" stroke="#2c3e50" stroke-width="1.5" d="M416.44,-523.34C460.76,-529.64 518.9,-537.91 562.53,-544.12"/>
<polygon fill="#2c3e50" stroke="#2c3e50" stroke-width="1.5" points="561.79,-547.55 572.18,-545.49 562.78,-540.62 561.79,-547.55"/>
</g>
<!-- bgp_attr_parse -->
<g id="node8" class="node">
<title>bgp_attr_parse</title>
<path fill="#f39c12" stroke="#d35400" d="M665.5,-372C665.5,-372 586.5,-372 586.5,-372 580.5,-372 574.5,-366 574.5,-360 574.5,-360 574.5,-348 574.5,-348 574.5,-342 580.5,-336 586.5,-336 586.5,-336 665.5,-336 665.5,-336 671.5,-336 677.5,-342 677.5,-348 677.5,-348 677.5,-360 677.5,-360 677.5,-366 671.5,-372 665.5,-372"/>
<text xml:space="preserve" text-anchor="middle" x="626" y="-348.98" font-family="Helvetica,sans-Serif" font-weight="bold" font-size="12.00" fill="white">bgp_attr_parse</text>
</g>
<!-- bgp_update_receive&#45;&gt;bgp_attr_parse -->
<g id="edge4" class="edge">
<title>bgp_update_receive&#45;&gt;bgp_attr_parse</title>
<path fill="none" stroke="#2c3e50" stroke-width="1.5" d="M396.8,-495.62C410.57,-489.59 425.52,-482.49 438.75,-475 489.83,-446.08 497.26,-430.55 546.75,-399 557.67,-392.04 569.68,-384.89 580.96,-378.39"/>
<polygon fill="#2c3e50" stroke="#2c3e50" stroke-width="1.5" points="582.55,-381.51 589.5,-373.51 579.08,-375.43 582.55,-381.51"/>
</g>
<!-- bgp_open_receive -->
<g id="node6" class="node">
<title>bgp_open_receive</title>
<path fill="#e74c3c" stroke="#c0392b" d="M399,-611C399,-611 300.5,-611 300.5,-611 294.5,-611 288.5,-605 288.5,-599 288.5,-599 288.5,-587 288.5,-587 288.5,-581 294.5,-575 300.5,-575 300.5,-575 399,-575 399,-575 405,-575 411,-581 411,-587 411,-587 411,-599 411,-599 411,-605 405,-611 399,-611"/>
<text xml:space="preserve" text-anchor="middle" x="349.75" y="-587.98" font-family="Helvetica,sans-Serif" font-weight="bold" font-size="12.00" fill="white">bgp_open_receive</text>
</g>
<!-- bgp_process_packet -->
<g id="node7" class="node">
<title>bgp_process_packet</title>
<path fill="#e74c3c" stroke="#c0392b" d="M140.75,-453C140.75,-453 28,-453 28,-453 22,-453 16,-447 16,-441 16,-441 16,-429 16,-429 16,-423 22,-417 28,-417 28,-417 140.75,-417 140.75,-417 146.75,-417 152.75,-423 152.75,-429 152.75,-429 152.75,-441 152.75,-441 152.75,-447 146.75,-453 140.75,-453"/>
<text xml:space="preserve" text-anchor="middle" x="84.38" y="-429.98" font-family="Helvetica,sans-Serif" font-weight="bold" font-size="12.00" fill="white">bgp_process_packet</text>
</g>
<!-- bgp_process_packet&#45;&gt;bgp_keepalive_receive -->
<g id="edge8" class="edge">
<title>bgp_process_packet&#45;&gt;bgp_keepalive_receive</title>
<path fill="none" stroke="#2c3e50" stroke-width="1.5" d="M153.2,-435C187.02,-435 228.26,-435 264.13,-435"/>
<polygon fill="#2c3e50" stroke="#2c3e50" stroke-width="1.5" points="263.81,-438.5 273.81,-435 263.81,-431.5 263.81,-438.5"/>
</g>
<!-- bgp_process_packet&#45;&gt;bgp_update_receive -->
<g id="edge10" class="edge">
<title>bgp_process_packet&#45;&gt;bgp_update_receive</title>
<path fill="none" stroke="#2c3e50" stroke-width="1.5" d="M146.79,-453.42C185.25,-464.96 235.02,-479.89 275.53,-492.04"/>
<polygon fill="#2c3e50" stroke="#2c3e50" stroke-width="1.5" points="274.48,-495.38 285.06,-494.9 276.49,-488.67 274.48,-495.38"/>
</g>
<!-- bgp_process_packet&#45;&gt;bgp_open_receive -->
<g id="edge12" class="edge">
<title>bgp_process_packet&#45;&gt;bgp_open_receive</title>
<path fill="none" stroke="#2c3e50" stroke-width="1.5" d="M109.46,-453.39C142.47,-478.11 204.13,-522.57 260.75,-554 270.73,-559.54 281.64,-564.9 292.29,-569.78"/>
<polygon fill="#2c3e50" stroke="#2c3e50" stroke-width="1.5" points="290.6,-572.85 301.16,-573.75 293.46,-566.47 290.6,-572.85"/>
</g>
<!-- bgp_reads_on -->
<g id="node10" class="node">
<title>bgp_reads_on</title>
<path fill="#e74c3c" stroke="#c0392b" d="M663.62,-291C663.62,-291 588.38,-291 588.38,-291 582.38,-291 576.38,-285 576.38,-279 576.38,-279 576.38,-267 576.38,-267 576.38,-261 582.38,-255 588.38,-255 588.38,-255 663.62,-255 663.62,-255 669.62,-255 675.62,-261 675.62,-267 675.62,-267 675.62,-279 675.62,-279 675.62,-285 669.62,-291 663.62,-291"/>
<text xml:space="preserve" text-anchor="middle" x="626" y="-267.98" font-family="Helvetica,sans-Serif" font-weight="bold" font-size="12.00" fill="white">bgp_reads_on</text>
</g>
<!-- bgp_process_packet&#45;&gt;bgp_reads_on -->
<g id="edge19" class="edge">
<title>bgp_process_packet&#45;&gt;bgp_reads_on</title>
<path fill="none" stroke="#2c3e50" stroke-width="1.5" d="M146.75,-416.57C250.89,-385.31 460.94,-322.25 564.48,-291.17"/>
<polygon fill="#2c3e50" stroke="#2c3e50" stroke-width="1.5" points="565.22,-294.6 573.79,-288.37 563.21,-287.9 565.22,-294.6"/>
</g>
<!-- bgp_event_update -->
<g id="node14" class="node">
<title>bgp_event_update</title>
<path fill="#9b59b6" stroke="#8e44ad" d="M399.38,-52C399.38,-52 300.12,-52 300.12,-52 294.12,-52 288.12,-46 288.12,-40 288.12,-40 288.12,-28 288.12,-28 288.12,-22 294.12,-16 300.12,-16 300.12,-16 399.38,-16 399.38,-16 405.38,-16 411.38,-22 411.38,-28 411.38,-28 411.38,-40 411.38,-40 411.38,-46 405.38,-52 399.38,-52"/>
<text xml:space="preserve" text-anchor="middle" x="349.75" y="-28.98" font-family="Helvetica,sans-Serif" font-weight="bold" font-size="12.00" fill="white">bgp_event_update</text>
</g>
<!-- bgp_process_packet&#45;&gt;bgp_event_update -->
<g id="edge2" class="edge">
<title>bgp_process_packet&#45;&gt;bgp_event_update</title>
<path fill="none" stroke="#2c3e50" stroke-width="1.5" d="M89.5,-416.54C103.41,-358.33 153.8,-176.38 260.75,-73 266.71,-67.24 273.67,-62.24 281.01,-57.94"/>
<polygon fill="#2c3e50" stroke="#2c3e50" stroke-width="1.5" points="282.4,-61.16 289.58,-53.37 279.11,-54.98 282.4,-61.16"/>
</g>
<!-- bgp_event -->
<g id="node12" class="node">
<title>bgp_event</title>
<path fill="#9b59b6" stroke="#8e44ad" d="M110.75,-52C110.75,-52 58,-52 58,-52 52,-52 46,-46 46,-40 46,-40 46,-28 46,-28 46,-22 52,-16 58,-16 58,-16 110.75,-16 110.75,-16 116.75,-16 122.75,-22 122.75,-28 122.75,-28 122.75,-40 122.75,-40 122.75,-46 116.75,-52 110.75,-52"/>
<text xml:space="preserve" text-anchor="middle" x="84.38" y="-28.98" font-family="Helvetica,sans-Serif" font-weight="bold" font-size="12.00" fill="white">bgp_event</text>
</g>
<!-- bgp_event&#45;&gt;bgp_event_update -->
<g id="edge6" class="edge">
<title>bgp_event&#45;&gt;bgp_event_update</title>
<path fill="none" stroke="#2c3e50" stroke-width="1.5" d="M123.11,-34C162.71,-34 225.96,-34 275.43,-34"/>
<polygon fill="#2c3e50" stroke="#2c3e50" stroke-width="1.5" points="275.42,-37.5 285.42,-34 275.42,-30.5 275.42,-37.5"/>
</g>
<!-- bgp_event_stop_with_notify -->
<g id="node13" class="node">
<title>bgp_event_stop_with_notify</title>
<path fill="#9b59b6" stroke="#8e44ad" d="M426.75,-131C426.75,-131 272.75,-131 272.75,-131 266.75,-131 260.75,-125 260.75,-119 260.75,-119 260.75,-107 260.75,-107 260.75,-101 266.75,-95 272.75,-95 272.75,-95 426.75,-95 426.75,-95 432.75,-95 438.75,-101 438.75,-107 438.75,-107 438.75,-119 438.75,-119 438.75,-125 432.75,-131 426.75,-131"/>
<text xml:space="preserve" text-anchor="middle" x="349.75" y="-107.97" font-family="Helvetica,sans-Serif" font-weight="bold" font-size="12.00" fill="white">bgp_event_stop_with_notify</text>
</g>
<!-- bgp_event_stop_with_notify&#45;&gt;bgp_reads_off -->
<g id="edge20" class="edge">
<title>bgp_event_stop_with_notify&#45;&gt;bgp_reads_off</title>
<path fill="none" stroke="#2c3e50" stroke-width="1.5" d="M413.32,-131.48C458.6,-144.85 519.46,-162.83 564.3,-176.07"/>
<polygon fill="#2c3e50" stroke="#2c3e50" stroke-width="1.5" points="563.16,-179.38 573.74,-178.86 565.14,-172.67 563.16,-179.38"/>
</g>
<!-- bgp_event_stop_with_notify&#45;&gt;bgp_fsm_change_status -->
<g id="edge11" class="edge">
<title>bgp_event_stop_with_notify&#45;&gt;bgp_fsm_change_status</title>
<path fill="none" stroke="#2c3e50" stroke-width="1.5" d="M439.03,-113C469.72,-113 504.16,-113 534.99,-113"/>
<polygon fill="#2c3e50" stroke="#2c3e50" stroke-width="1.5" points="534.79,-116.5 544.79,-113 534.79,-109.5 534.79,-116.5"/>
</g>
<!-- bgp_event_update&#45;&gt;bgp_reads_off -->
<g id="edge15" class="edge">
<title>bgp_event_update&#45;&gt;bgp_reads_off</title>
<path fill="none" stroke="#2c3e50" stroke-width="1.5" d="M399.67,-52.42C412.8,-58.23 426.69,-65.19 438.75,-73 492.91,-108.06 490.59,-138.24 546.75,-170 552.39,-173.19 558.51,-176.01 564.75,-178.48"/>
<polygon fill="#2c3e50" stroke="#2c3e50" stroke-width="1.5" points="563.32,-181.69 573.92,-181.8 565.7,-175.1 563.32,-181.69"/>
</g>
<!-- bgp_event_update&#45;&gt;bgp_fsm_change_status -->
<g id="edge7" class="edge">
<title>bgp_event_update&#45;&gt;bgp_fsm_change_status</title>
<path fill="none" stroke="#2c3e50" stroke-width="1.5" d="M411.61,-51.53C452.23,-63.23 505.94,-78.7 549.31,-91.2"/>
<polygon fill="#2c3e50" stroke="#2c3e50" stroke-width="1.5" points="548.21,-94.52 558.78,-93.93 550.14,-87.79 548.21,-94.52"/>
</g>
</g>
</svg>
